# Blender 5.0.1
# www.blender.org
mtllib tripo_convert_db480354-21ab-4411-8fa8-8d62bd065a49.mtl
o tripo_node_db480354-21ab-4411-8fa8-8d62bd065a49
v -0.051758 0.806641 0.002930
v 0.047852 0.806641 0.002930
v -0.002930 0.873047 0.012695
v -0.032227 0.873047 0.026367
v 0.028320 0.873047 0.026367
v 0.221680 0.406250 0.041992
v 0.243164 0.248047 0.041992
v 0.233398 0.107422 0.041992
v 0.208008 0.476562 0.043945
v -0.002930 0.939453 0.045898
v -0.211914 0.476562 0.045898
v -0.225586 0.406250 0.045898
v -0.192383 0.578125 0.047852
v 0.188477 0.578125 0.047852
v 0.223633 0.595703 0.047852
v 0.190430 0.648438 0.047852
v 0.137695 0.718750 0.047852
v -0.055664 0.806641 0.047852
v 0.049805 0.806641 0.047852
v -0.247070 0.248047 0.047852
v -0.227539 0.595703 0.049805
v -0.194336 0.648438 0.049805
v -0.141602 0.718750 0.049805
v -0.036133 0.873047 0.055664
v 0.030273 0.873047 0.055664
v 0.231445 0.164062 0.057617
v -0.225586 0.162109 0.057617
v -0.190430 0.160156 0.057617
v 0.233398 0.119141 0.057617
v -0.227539 0.107422 0.057617
v 0.225586 0.107422 0.057617
v -0.194336 0.105469 0.057617
v -0.237305 0.164062 0.059570
v 0.223633 0.107422 0.059570
v -0.237305 0.105469 0.059570
v -0.073242 0.822266 0.061523
v 0.069336 0.822266 0.061523
v 0.219727 0.164062 0.061523
v 0.190430 0.107422 0.061523
v 0.235352 0.101562 0.061523
v 0.186523 0.162109 0.063477
v -0.002930 0.806641 0.065430
v -0.002930 0.873047 0.071289
v 0.231445 0.177734 0.071289
v -0.237305 0.177734 0.073242
v 0.235352 0.085938 0.073242
v -0.221680 0.177734 0.075195
v 0.217773 0.177734 0.077148
v -0.239258 0.085938 0.077148
v 0.225586 0.085938 0.077148
v -0.229492 0.083984 0.077148
v 0.120117 0.718750 0.083008
v -0.135742 0.193359 0.083008
v -0.124023 0.718750 0.084961
v 0.129883 0.189453 0.084961
v -0.075195 0.191406 0.086914
v 0.069336 0.191406 0.088867
v -0.075195 0.121094 0.088867
v -0.133789 0.121094 0.088867
v 0.131836 0.121094 0.088867
v 0.071289 0.121094 0.090820
v -0.002930 0.822266 0.092773
v 0.221680 0.203125 0.098633
v 0.213867 0.199219 0.098633
v -0.217773 0.199219 0.100586
v -0.225586 0.203125 0.102539
v 0.155273 0.576172 0.106445
v 0.161133 0.646484 0.106445
v 0.229492 0.000000 0.106445
v -0.159180 0.576172 0.108398
v -0.165039 0.646484 0.108398
v -0.063477 0.716797 0.108398
v 0.059570 0.716797 0.108398
v 0.174805 0.476562 0.108398
v 0.241211 0.000000 0.108398
v -0.178711 0.476562 0.110352
v 0.188477 0.406250 0.110352
v -0.233398 0.000000 0.110352
v -0.192383 0.406250 0.112305
v 0.208008 0.277344 0.112305
v -0.245117 0.000000 0.114258
v -0.213867 0.277344 0.116211
v -0.012695 0.583984 0.122070
v 0.040039 0.583984 0.122070
v -0.190430 0.593750 0.122070
v 0.188477 0.593750 0.122070
v -0.012695 0.636719 0.122070
v 0.040039 0.636719 0.122070
v -0.290039 0.998047 0.125977
v -0.237305 0.937500 0.127930
v -0.077148 0.574219 0.129883
v 0.073242 0.574219 0.129883
v -0.163086 0.853516 0.129883
v 0.256836 0.242188 0.129883
v 0.079102 0.646484 0.135742
v -0.083008 0.757812 0.135742
v -0.086914 0.474609 0.135742
v 0.084961 0.474609 0.135742
v -0.081055 0.646484 0.137695
v -0.032227 0.687500 0.137695
v 0.004883 0.638672 0.139648
v 0.090820 0.406250 0.139648
v -0.000977 0.435547 0.141602
v -0.094727 0.406250 0.141602
v 0.223633 0.230469 0.141602
v 0.094727 0.359375 0.143555
v -0.206055 0.250000 0.143555
v 0.239258 0.218750 0.143555
v -0.254883 0.921875 0.145508
v -0.241211 0.939453 0.145508
v -0.291992 0.998047 0.145508
v -0.096680 0.359375 0.145508
v 0.204102 0.250000 0.145508
v -0.200195 0.232422 0.145508
v -0.227539 0.230469 0.145508
v 0.161133 0.230469 0.145508
v 0.196289 0.230469 0.145508
v -0.208008 0.214844 0.145508
v -0.028320 0.601562 0.147461
v -0.075195 0.640625 0.147461
v -0.141602 0.697266 0.147461
v -0.247070 0.931641 0.147461
v -0.000977 0.373047 0.147461
v -0.165039 0.230469 0.147461
v 0.202148 0.214844 0.147461
v -0.208008 0.185547 0.147461
v 0.153320 0.185547 0.147461
v -0.206055 0.154297 0.147461
v -0.217773 0.759766 0.149414
v -0.166992 0.855469 0.149414
v -0.315430 0.970703 0.149414
v -0.151367 0.214844 0.149414
v 0.153320 0.214844 0.149414
v 0.143555 0.207031 0.149414
v -0.145508 0.195312 0.149414
v -0.151367 0.195312 0.149414
v -0.157227 0.187500 0.149414
v 0.204102 0.187500 0.149414
v -0.166992 0.169922 0.149414
v -0.198242 0.169922 0.149414
v 0.163086 0.169922 0.149414
v 0.194336 0.169922 0.149414
v 0.155273 0.154297 0.149414
v -0.208008 0.125000 0.149414
v 0.379883 0.908203 0.151367
v -0.262695 0.912109 0.151367
v -0.000977 0.312500 0.151367
v -0.157227 0.214844 0.151367
v -0.159180 0.154297 0.151367
v 0.202148 0.154297 0.151367
v 0.204102 0.126953 0.151367
v -0.157227 0.125000 0.151367
v 0.153320 0.125000 0.151367
v -0.092773 0.591797 0.153320
v 0.000977 0.591797 0.153320
v 0.090820 0.591797 0.153320
v -0.309570 0.833984 0.153320
v -0.176758 0.839844 0.153320
v -0.385742 0.353516 0.153320
v -0.000977 0.345703 0.153320
v -0.159180 0.285156 0.153320
v 0.157227 0.283203 0.153320
v -0.143555 0.123047 0.153320
v -0.151367 0.123047 0.153320
v 0.194336 0.109375 0.153320
v -0.165039 0.107422 0.153320
v -0.198242 0.107422 0.153320
v 0.161133 0.107422 0.153320
v -0.149414 0.105469 0.153320
v 0.147461 0.103516 0.153320
v -0.155273 0.093750 0.153320
v 0.204102 0.093750 0.153320
v -0.206055 0.091797 0.153320
v 0.153320 0.091797 0.153320
v -0.182617 0.826172 0.155273
v -0.375977 0.890625 0.155273
v -0.153320 0.253906 0.155273
v 0.153320 0.250000 0.155273
v -0.059570 0.208984 0.155273
v 0.055664 0.208984 0.155273
v 0.051758 0.195312 0.155273
v -0.059570 0.193359 0.155273
v 0.045898 0.177734 0.155273
v 0.051758 0.177734 0.155273
v -0.153320 0.064453 0.155273
v 0.151367 0.064453 0.155273
v 0.206055 0.064453 0.155273
v 0.004883 0.599609 0.157227
v -0.016602 0.619141 0.157227
v 0.313477 0.847656 0.157227
v -0.313477 0.408203 0.157227
v -0.000977 0.232422 0.157227
v -0.053711 0.193359 0.157227
v 0.057617 0.103516 0.157227
v -0.208008 0.062500 0.157227
v 0.161133 0.046875 0.157227
v 0.196289 0.046875 0.157227
v -0.163086 0.044922 0.157227
v -0.112305 0.544922 0.159180
v -0.088867 0.560547 0.159180
v -0.088867 0.759766 0.159180
v 0.233398 0.775391 0.159180
v -0.233398 0.474609 0.159180
v -0.000977 0.193359 0.159180
v -0.059570 0.105469 0.159180
v -0.198242 0.044922 0.159180
v -0.157227 0.033203 0.159180
v 0.155273 0.033203 0.159180
v 0.206055 0.029297 0.159180
v 0.247070 0.000000 0.159180
v -0.143555 0.550781 0.161133
v 0.100586 0.656250 0.161133
v 0.141602 0.693359 0.161133
v -0.327148 0.289062 0.161133
v -0.000977 0.216797 0.161133
v 0.045898 0.039062 0.161133
v 0.053711 0.039062 0.161133
v 0.053711 0.033203 0.161133
v 0.209961 0.000000 0.161133
v -0.063477 0.529297 0.163086
v 0.026367 0.593750 0.163086
v 0.051758 0.607422 0.163086
v 0.120117 0.673828 0.163086
v -0.104492 0.742188 0.163086
v -0.000977 0.289062 0.163086
v -0.208008 0.029297 0.163086
v 0.141602 0.539062 0.165039
v -0.036133 0.689453 0.165039
v -0.000977 0.253906 0.165039
v -0.053711 0.041016 0.165039
v -0.059570 0.041016 0.165039
v -0.059570 0.033203 0.165039
v -0.211914 0.000000 0.165039
v -0.249023 0.000000 0.165039
v 0.010742 0.572266 0.166992
v -0.092773 0.498047 0.166992
v 0.241211 0.457031 0.166992
v -0.295898 0.257812 0.166992
v -0.166992 0.408203 0.168945
v 0.325195 0.384766 0.168945
v -0.227539 0.337891 0.168945
v -0.032227 0.177734 0.168945
v 0.024414 0.177734 0.168945
v -0.006836 0.609375 0.170898
v -0.002930 0.621094 0.170898
v -0.000977 0.638672 0.170898
v -0.051758 0.673828 0.170898
v -0.143555 0.707031 0.170898
v -0.217773 0.769531 0.170898
v -0.311523 0.845703 0.170898
v -0.375977 0.898438 0.170898
v 0.385742 0.333984 0.170898
v 0.133789 0.208984 0.170898
v -0.133789 0.195312 0.170898
v -0.014648 0.113281 0.170898
v 0.004883 0.113281 0.170898
v -0.063477 0.531250 0.172852
v 0.002930 0.599609 0.172852
v -0.026367 0.611328 0.172852
v -0.073242 0.650391 0.172852
v 0.086914 0.482422 0.172852
v -0.151367 0.214844 0.172852
v -0.079102 0.210938 0.172852
v 0.110352 0.208984 0.172852
v 0.145508 0.208984 0.172852
v 0.094727 0.201172 0.172852
v -0.151367 0.197266 0.172852
v 0.145508 0.195312 0.172852
v 0.131836 0.193359 0.172852
v -0.014648 0.087891 0.172852
v 0.004883 0.087891 0.172852
v -0.012695 0.626953 0.174805
v 0.325195 0.968750 0.174805
v 0.081055 0.208984 0.174805
v -0.059570 0.193359 0.174805
v -0.073242 0.193359 0.174805
v 0.024414 0.177734 0.174805
v 0.045898 0.177734 0.174805
v -0.032227 0.039062 0.174805
v 0.024414 0.039062 0.174805
v -0.077148 0.544922 0.176758
v 0.061523 0.701172 0.176758
v -0.092773 0.498047 0.176758
v -0.327148 0.289062 0.176758
v -0.059570 0.208984 0.176758
v 0.055664 0.208984 0.176758
v -0.053711 0.193359 0.176758
v 0.071289 0.193359 0.176758
v -0.032227 0.177734 0.176758
v -0.073242 0.123047 0.176758
v -0.131836 0.123047 0.176758
v 0.133789 0.123047 0.176758
v -0.104492 0.509766 0.178711
v -0.081055 0.548828 0.178711
v 0.157227 0.402344 0.178711
v 0.051758 0.195312 0.178711
v -0.151367 0.123047 0.178711
v -0.059570 0.105469 0.178711
v 0.147461 0.105469 0.178711
v 0.149414 0.029297 0.178711
v -0.151367 0.027344 0.178711
v -0.120117 0.525391 0.180664
v -0.110352 0.539062 0.180664
v 0.016602 0.601562 0.180664
v 0.094727 0.742188 0.180664
v 0.385742 0.908203 0.180664
v -0.249023 0.357422 0.180664
v 0.051758 0.179688 0.180664
v 0.073242 0.123047 0.180664
v -0.149414 0.107422 0.180664
v 0.059570 0.105469 0.180664
v 0.053711 0.027344 0.180664
v -0.147461 0.000000 0.180664
v 0.145508 0.000000 0.180664
v 0.141602 0.535156 0.182617
v -0.143555 0.546875 0.182617
v 0.143555 0.693359 0.182617
v 0.241211 0.455078 0.182617
v -0.180664 0.421875 0.182617
v -0.168945 0.408203 0.182617
v -0.161133 0.283203 0.182617
v 0.159180 0.281250 0.182617
v 0.202148 0.250000 0.182617
v -0.198242 0.236328 0.182617
v 0.163086 0.234375 0.182617
v 0.053711 0.000000 0.182617
v 0.049805 0.603516 0.184570
v 0.090820 0.667969 0.184570
v 0.122070 0.675781 0.184570
v 0.170898 0.839844 0.184570
v 0.227539 0.443359 0.184570
v -0.196289 0.437500 0.184570
v 0.325195 0.382812 0.184570
v 0.307617 0.365234 0.184570
v -0.385742 0.349609 0.184570
v -0.227539 0.337891 0.184570
v -0.333008 0.292969 0.184570
v -0.155273 0.253906 0.184570
v -0.206055 0.251953 0.184570
v 0.157227 0.248047 0.184570
v -0.166992 0.232422 0.184570
v 0.196289 0.232422 0.184570
v -0.032227 0.039062 0.184570
v -0.053711 0.039062 0.184570
v 0.024414 0.039062 0.184570
v 0.045898 0.039062 0.184570
v -0.059570 0.027344 0.184570
v 0.018555 0.576172 0.186523
v -0.000977 0.619141 0.186523
v 0.077148 0.683594 0.186523
v 0.063477 0.699219 0.186523
v 0.122070 0.714844 0.186523
v 0.317383 0.847656 0.186523
v 0.327148 0.966797 0.186523
v 0.293945 0.998047 0.186523
v -0.233398 0.470703 0.186523
v 0.215820 0.437500 0.186523
v 0.319336 0.376953 0.186523
v -0.262695 0.367188 0.186523
v -0.245117 0.353516 0.186523
v 0.239258 0.310547 0.186523
v -0.319336 0.279297 0.186523
v 0.250977 0.230469 0.186523
v 0.241211 0.216797 0.186523
v -0.157227 0.189453 0.186523
v 0.202148 0.187500 0.186523
v -0.168945 0.171875 0.186523
v 0.192383 0.171875 0.186523
v -0.059570 0.000000 0.186523
v 0.125977 0.517578 0.188477
v 0.036133 0.591797 0.188477
v 0.106445 0.730469 0.188477
v 0.237305 0.775391 0.188477
v 0.229492 0.914062 0.188477
v -0.315430 0.406250 0.188477
v -0.077148 0.365234 0.188477
v 0.299805 0.357422 0.188477
v 0.385742 0.333984 0.188477
v 0.209961 0.275391 0.188477
v -0.295898 0.255859 0.188477
v 0.262695 0.244141 0.188477
v -0.159180 0.216797 0.188477
v 0.202148 0.216797 0.188477
v 0.096680 0.742188 0.190430
v 0.358398 0.304688 0.190430
v 0.295898 0.244141 0.190430
v -0.243164 0.218750 0.190430
v -0.196289 0.171875 0.190430
v 0.165039 0.171875 0.190430
v -0.012695 0.111328 0.190430
v -0.170898 0.109375 0.190430
v 0.190430 0.109375 0.190430
v 0.014648 0.552734 0.192383
v -0.030273 0.566406 0.192383
v 0.057617 0.566406 0.192383
v -0.012695 0.583984 0.192383
v 0.040039 0.583984 0.192383
v -0.043945 0.611328 0.192383
v 0.071289 0.611328 0.192383
v -0.012695 0.636719 0.192383
v 0.040039 0.636719 0.192383
v -0.030273 0.654297 0.192383
v 0.057617 0.654297 0.192383
v 0.014648 0.667969 0.192383
v 0.202148 0.810547 0.192383
v 0.092773 0.484375 0.192383
v -0.258789 0.246094 0.192383
v -0.206055 0.218750 0.192383
v 0.155273 0.216797 0.192383
v 0.002930 0.111328 0.192383
v -0.194336 0.109375 0.192383
v 0.166992 0.109375 0.192383
v -0.012695 0.091797 0.192383
v 0.002930 0.091797 0.192383
v 0.268555 0.884766 0.194336
v 0.254883 0.896484 0.194336
v 0.333008 0.960938 0.194336
v -0.206055 0.189453 0.194336
v 0.155273 0.189453 0.194336
v -0.161133 0.156250 0.194336
v 0.200195 0.156250 0.194336
v -0.159180 0.126953 0.194336
v 0.202148 0.126953 0.194336
v 0.186523 0.824219 0.196289
v 0.165039 0.404297 0.196289
v 0.190430 0.046875 0.196289
v -0.168945 0.044922 0.196289
v -0.059570 0.037109 0.196289
v 0.053711 0.037109 0.196289
v -0.059570 0.000000 0.196289
v 0.053711 0.000000 0.196289
v 0.172852 0.837891 0.198242
v -0.092773 0.355469 0.198242
v -0.077148 0.351562 0.198242
v -0.204102 0.156250 0.198242
v 0.157227 0.156250 0.198242
v -0.206055 0.126953 0.198242
v 0.155273 0.126953 0.198242
v -0.190430 0.046875 0.198242
v 0.168945 0.046875 0.198242
v 0.250977 0.898438 0.200195
v 0.321289 0.974609 0.200195
v -0.000977 0.410156 0.200195
v -0.053711 0.376953 0.200195
v -0.000977 0.375000 0.200195
v 0.247070 0.312500 0.200195
v 0.200195 0.095703 0.200195
v -0.159180 0.093750 0.200195
v 0.233398 0.914062 0.202148
v 0.204102 0.066406 0.202148
v -0.155273 0.064453 0.202148
v 0.301758 0.248047 0.204102
v 0.155273 0.066406 0.204102
v -0.204102 0.064453 0.204102
v -0.202148 0.093750 0.206055
v 0.157227 0.093750 0.206055
v 0.297852 0.998047 0.208008
v 0.204102 0.029297 0.208008
v -0.155273 0.027344 0.208008
v 0.014648 0.556641 0.209961
v -0.026367 0.570312 0.209961
v 0.053711 0.570312 0.209961
v -0.038086 0.611328 0.209961
v 0.067383 0.611328 0.209961
v -0.026367 0.650391 0.209961
v 0.053711 0.650391 0.209961
v 0.014648 0.664062 0.209961
v 0.153320 0.029297 0.209961
v -0.206055 0.027344 0.209961
v -0.151367 0.000000 0.211914
v -0.209961 0.000000 0.211914
v 0.149414 0.000000 0.211914
v 0.208008 0.000000 0.211914
v 0.014648 0.611328 0.221680
v -0.069336 0.822266 -0.002930
v 0.063477 0.822266 -0.002930
v 0.182617 0.160156 -0.014648
v 0.217773 0.162109 -0.016602
v 0.186523 0.105469 -0.018555
v -0.235352 0.162109 -0.020508
v -0.221680 0.160156 -0.020508
v -0.188477 0.158203 -0.020508
v 0.219727 0.107422 -0.020508
v -0.002930 0.806641 -0.022461
v -0.223633 0.105469 -0.022461
v -0.190430 0.103516 -0.022461
v 0.231445 0.162109 -0.024414
v -0.235352 0.105469 -0.024414
v -0.122070 0.720703 -0.026367
v 0.116211 0.720703 -0.028320
v 0.231445 0.105469 -0.028320
v -0.002930 0.822266 -0.036133
v -0.235352 0.179688 -0.040039
v 0.211914 0.177734 -0.040039
v -0.215820 0.177734 -0.041992
v 0.229492 0.179688 -0.043945
v -0.235352 0.085938 -0.043945
v -0.223633 0.083984 -0.045898
v 0.219727 0.083984 -0.045898
v -0.166992 0.582031 -0.049805
v 0.161133 0.582031 -0.049805
v 0.231445 0.085938 -0.049805
v -0.165039 0.652344 -0.051758
v 0.161133 0.652344 -0.051758
v -0.186523 0.480469 -0.059570
v 0.180664 0.480469 -0.061523
v -0.200195 0.406250 -0.065430
v -0.194336 0.599609 -0.067383
v 0.190430 0.599609 -0.069336
v 0.196289 0.406250 -0.069336
v -0.223633 0.265625 -0.069336
v 0.217773 0.265625 -0.073242
v -0.063477 0.722656 -0.077148
v 0.057617 0.722656 -0.077148
v -0.209961 0.193359 -0.086914
v -0.002930 0.722656 -0.088867
v -0.221680 0.199219 -0.088867
v 0.206055 0.193359 -0.088867
v 0.215820 0.199219 -0.092773
v -0.225586 0.000000 -0.110352
v -0.094727 0.585938 -0.114258
v 0.088867 0.585938 -0.114258
v -0.245117 0.000000 -0.114258
v 0.219727 0.000000 -0.114258
v -0.090820 0.654297 -0.118164
v 0.084961 0.654297 -0.120117
v 0.239258 0.000000 -0.120117
v -0.112305 0.482422 -0.129883
v -0.256836 0.232422 -0.129883
v -0.227539 0.216797 -0.129883
v -0.243164 0.212891 -0.129883
v 0.106445 0.482422 -0.131836
v -0.200195 0.230469 -0.131836
v -0.002930 0.585938 -0.133789
v 0.194336 0.230469 -0.133789
v 0.221680 0.216797 -0.135742
v 0.237305 0.212891 -0.135742
v -0.002930 0.656250 -0.137695
v 0.250977 0.232422 -0.137695
v -0.124023 0.406250 -0.139648
v 0.118164 0.406250 -0.141602
v -0.137695 0.324219 -0.143555
v -0.108398 0.603516 -0.145508
v 0.102539 0.603516 -0.145508
v 0.131836 0.324219 -0.145508
v 0.141602 0.242188 -0.147461
v -0.002930 0.482422 -0.151367
v -0.147461 0.242188 -0.155273
v -0.002930 0.404297 -0.161133
v 0.145508 0.248047 -0.163086
v -0.198242 0.230469 -0.165039
v -0.002930 0.605469 -0.166992
v 0.192383 0.230469 -0.166992
v -0.002930 0.347656 -0.168945
v -0.151367 0.248047 -0.168945
v -0.249023 0.000000 -0.172852
v -0.211914 0.000000 -0.176758
v 0.206055 0.000000 -0.178711
v -0.002930 0.402344 -0.180664
v 0.245117 0.000000 -0.180664
v -0.002930 0.355469 -0.182617
v 0.149414 0.000000 -0.188477
v -0.155273 0.000000 -0.194336
v -0.209961 0.000000 -0.217773
v 0.153320 0.000000 -0.217773
v -0.159180 0.000000 -0.221680
v 0.204102 0.000000 -0.221680
s 1
f 407 387 434
f 434 387 445
f 434 445 444
f 434 444 376
f 376 444 443
f 443 444 445
f 434 376 433
f 434 433 407
f 433 376 112
f 112 376 443
f 407 433 82
f 82 433 112
f 112 443 103
f 407 82 20
f 82 112 79
f 20 82 12
f 12 82 79
f 79 112 104
f 104 112 103
f 79 104 76
f 407 20 529
f 104 103 97
f 104 97 76
f 79 76 11
f 79 11 12
f 511 20 12
f 20 511 529
f 12 11 505
f 511 12 507
f 507 12 505
f 511 507 542
f 511 542 529
f 13 11 76
f 11 13 505
f 507 505 540
f 507 540 542
f 540 505 528
f 542 540 549
f 549 540 528
f 528 505 500
f 500 505 13
f 528 500 521
f 70 13 76
f 70 76 97
f 500 13 508
f 500 508 521
f 13 70 85
f 13 85 21
f 13 21 508
f 85 70 154
f 70 97 91
f 70 91 154
f 91 97 98
f 98 97 103
f 21 85 71
f 71 85 154
f 21 71 22
f 21 22 508
f 71 154 99
f 155 154 91
f 154 155 99
f 155 91 92
f 92 91 98
f 22 71 54
f 54 71 99
f 155 92 156
f 92 98 67
f 92 67 156
f 155 156 95
f 155 95 99
f 156 67 86
f 54 99 72
f 95 156 68
f 68 156 86
f 99 95 73
f 99 73 72
f 95 68 52
f 95 52 73
f 68 86 15
f 52 68 16
f 16 68 15
f 15 86 14
f 14 86 67
f 16 15 509
f 509 15 14
f 52 16 17
f 19 73 52
f 19 52 17
f 17 16 504
f 504 16 509
f 17 504 490
f 17 490 2
f 17 2 19
f 490 504 526
f 526 504 509
f 2 490 514
f 514 490 526
f 526 509 544
f 2 514 484
f 544 509 522
f 526 544 552
f 552 544 522
f 514 526 538
f 538 526 552
f 514 538 516
f 514 516 484
f 516 538 513
f 516 513 484
f 513 538 525
f 525 538 552
f 484 513 1
f 492 2 484
f 492 484 1
f 1 513 489
f 489 513 525
f 525 552 543
f 525 543 508
f 543 552 521
f 543 521 508
f 521 552 534
f 525 508 503
f 525 503 489
f 503 508 22
f 489 503 23
f 23 503 22
f 489 23 1
f 23 22 54
f 534 552 522
f 23 54 18
f 23 18 1
f 18 54 72
f 547 521 534
f 547 534 522
f 521 547 528
f 528 547 549
f 547 522 532
f 547 532 549
f 532 522 501
f 501 522 509
f 501 509 14
f 532 501 506
f 506 501 14
f 549 532 541
f 541 532 506
f 549 541 545
f 541 506 510
f 541 510 545
f 510 506 6
f 506 14 9
f 506 9 6
f 9 14 74
f 74 14 67
f 74 67 98
f 9 74 77
f 9 77 6
f 74 98 102
f 74 102 77
f 102 98 103
f 102 103 106
f 102 106 77
f 106 103 443
f 6 77 80
f 80 77 106
f 106 443 379
f 106 379 80
f 379 443 445
f 6 80 7
f 6 7 512
f 6 512 510
f 7 80 94
f 94 80 379
f 510 512 545
f 512 7 539
f 512 539 545
f 539 7 94
f 545 539 553
f 553 539 535
f 553 535 558
f 535 539 536
f 535 536 558
f 553 558 567
f 558 536 560
f 553 567 565
f 560 536 527
f 553 565 550
f 559 545 553
f 559 553 550
f 545 559 549
f 550 565 562
f 549 559 542
f 550 562 546
f 542 559 551
f 546 562 548
f 548 562 563
f 550 546 554
f 554 546 548
f 561 559 550
f 561 550 554
f 559 561 555
f 555 561 554
f 555 554 548
f 555 548 563
f 559 555 551
f 555 563 566
f 555 566 551
f 551 566 564
f 551 564 557
f 542 551 529
f 551 557 533
f 551 533 529
f 533 557 530
f 533 530 529
f 530 557 556
f 530 556 523
f 529 530 531
f 529 531 407
f 407 531 387
f 531 530 115
f 531 115 387
f 530 523 517
f 530 517 115
f 517 523 520
f 387 115 339
f 387 339 445
f 517 520 515
f 115 517 66
f 66 517 515
f 515 520 498
f 498 520 78
f 66 515 65
f 515 498 495
f 515 495 65
f 495 498 497
f 498 78 51
f 498 51 497
f 51 78 65
f 65 78 81
f 65 81 66
f 66 81 234
f 66 234 115
f 47 65 495
f 65 47 51
f 47 495 493
f 493 495 497
f 51 47 49
f 51 49 497
f 47 493 45
f 47 45 49
f 493 497 480
f 493 480 45
f 497 49 488
f 497 488 480
f 488 49 35
f 35 49 45
f 35 45 33
f 33 45 480
f 488 35 30
f 30 35 33
f 480 488 485
f 485 488 30
f 33 480 27
f 33 27 30
f 27 480 481
f 481 480 485
f 30 27 32
f 30 32 485
f 27 481 28
f 27 28 32
f 28 481 482
f 28 482 32
f 482 481 485
f 485 32 486
f 485 486 482
f 482 486 32
f 335 159 337
f 159 335 191
f 335 337 375
f 335 375 191
f 337 159 214
f 214 159 191
f 375 337 359
f 375 359 356
f 375 356 191
f 359 337 307
f 356 359 332
f 332 359 307
f 337 214 284
f 337 284 307
f 241 214 191
f 284 214 238
f 238 214 241
f 307 284 360
f 284 238 362
f 284 362 360
f 362 238 380
f 362 380 336
f 336 380 238
f 362 336 360
f 336 238 241
f 307 360 319
f 307 319 332
f 360 336 320
f 360 320 319
f 320 336 241
f 332 319 293
f 320 241 239
f 239 241 191
f 319 320 283
f 283 320 239
f 319 283 293
f 239 191 203
f 203 191 356
f 283 239 236
f 236 239 203
f 203 356 316
f 316 356 332
f 236 203 211
f 211 203 316
f 316 332 302
f 302 332 293
f 316 302 303
f 303 302 293
f 211 316 199
f 211 199 236
f 199 316 303
f 236 199 220
f 257 283 236
f 283 257 293
f 257 236 220
f 281 303 293
f 281 293 257
f 199 303 200
f 199 200 220
f 303 281 294
f 303 294 200
f 281 257 258
f 258 257 220
f 294 281 244
f 244 281 258
f 294 244 200
f 258 220 188
f 258 188 244
f 189 220 200
f 189 200 244
f 220 189 188
f 188 189 244
f 471 469 233
f 469 471 470
f 233 469 226
f 469 470 459
f 459 470 313
f 233 226 234
f 459 313 301
f 301 313 347
f 347 313 369
f 347 369 430
f 301 347 232
f 347 430 428
f 347 428 232
f 301 232 207
f 301 207 459
f 207 232 231
f 231 232 428
f 459 207 427
f 459 427 469
f 429 428 430
f 429 430 431
f 231 428 344
f 469 427 439
f 469 439 226
f 226 439 206
f 226 206 195
f 195 206 439
f 226 195 234
f 195 439 454
f 454 439 427
f 234 195 173
f 173 195 454
f 454 427 451
f 234 173 144
f 173 454 455
f 234 144 115
f 454 451 448
f 454 448 455
f 451 427 185
f 451 185 448
f 185 427 198
f 198 427 207
f 198 207 185
f 455 448 411
f 455 411 173
f 448 185 171
f 173 411 167
f 173 167 144
f 144 167 411
f 448 171 391
f 448 391 411
f 171 185 169
f 169 185 207
f 391 171 166
f 166 171 169
f 411 391 437
f 411 437 144
f 391 166 422
f 391 422 437
f 422 166 152
f 152 166 169
f 437 422 435
f 437 435 144
f 422 152 420
f 422 420 435
f 420 152 149
f 144 435 128
f 435 420 388
f 435 388 128
f 388 420 367
f 367 420 149
f 128 388 140
f 144 128 115
f 140 388 418
f 418 388 367
f 128 140 126
f 128 126 115
f 126 140 418
f 115 126 118
f 118 126 418
f 115 118 114
f 115 114 107
f 114 118 324
f 114 324 107
f 115 107 339
f 339 107 324
f 118 418 408
f 118 408 324
f 408 418 365
f 365 418 367
f 408 365 382
f 324 408 341
f 341 408 382
f 339 324 338
f 338 324 341
f 339 338 321
f 339 321 445
f 338 341 177
f 338 177 321
f 341 382 148
f 148 382 365
f 177 341 124
f 124 341 148
f 445 321 123
f 137 365 367
f 365 137 148
f 137 367 139
f 139 367 149
f 139 149 137
f 137 149 136
f 137 136 148
f 136 149 164
f 164 149 152
f 148 136 132
f 192 124 148
f 192 148 132
f 164 152 169
f 124 192 177
f 164 169 297
f 135 136 164
f 164 297 163
f 164 163 135
f 136 135 267
f 136 267 132
f 135 163 254
f 135 254 267
f 163 297 291
f 163 291 254
f 310 297 169
f 297 310 291
f 267 254 262
f 267 262 132
f 310 169 205
f 205 169 207
f 205 207 231
f 132 262 263
f 263 262 254
f 132 263 179
f 310 205 298
f 310 298 290
f 310 290 291
f 290 298 275
f 275 298 205
f 291 290 58
f 290 275 276
f 290 276 58
f 291 58 59
f 291 59 254
f 59 58 53
f 59 53 254
f 53 58 56
f 53 56 254
f 56 58 276
f 56 276 254
f 254 276 263
f 263 276 285
f 285 276 275
f 263 285 179
f 285 275 182
f 285 182 179
f 182 275 205
f 179 182 193
f 193 182 205
f 179 193 215
f 179 215 132
f 193 205 230
f 230 205 231
f 230 231 344
f 193 230 287
f 287 230 344
f 132 215 192
f 204 215 193
f 204 193 287
f 287 344 289
f 215 204 181
f 204 287 296
f 204 296 181
f 287 289 308
f 287 308 296
f 289 344 343
f 343 344 428
f 289 343 279
f 343 428 345
f 279 343 280
f 280 343 345
f 345 428 429
f 279 280 242
f 279 242 289
f 242 280 243
f 289 242 277
f 277 242 243
f 277 243 280
f 277 280 345
f 289 277 308
f 277 345 346
f 346 345 429
f 308 277 278
f 278 277 346
f 308 278 184
f 308 184 296
f 184 278 183
f 278 346 216
f 278 216 183
f 216 346 217
f 217 346 429
f 183 216 194
f 183 194 184
f 194 216 217
f 184 194 181
f 184 181 296
f 194 217 170
f 217 429 218
f 217 218 208
f 217 208 170
f 218 429 312
f 312 429 431
f 312 431 326
f 312 326 314
f 218 312 300
f 300 312 314
f 218 300 208
f 300 314 468
f 300 468 208
f 468 314 472
f 468 472 473
f 468 473 458
f 458 473 219
f 208 468 440
f 440 468 458
f 458 219 209
f 208 440 196
f 208 196 186
f 186 196 440
f 208 186 170
f 209 219 210
f 440 458 426
f 426 458 209
f 426 209 197
f 197 209 187
f 197 187 426
f 187 209 210
f 440 426 450
f 450 426 187
f 440 450 453
f 440 453 186
f 450 187 447
f 453 450 456
f 456 450 447
f 186 453 174
f 174 453 456
f 186 174 170
f 456 447 412
f 456 412 174
f 172 447 187
f 172 187 210
f 447 172 392
f 447 392 412
f 174 412 168
f 174 168 170
f 168 412 153
f 168 153 170
f 392 172 165
f 412 392 438
f 412 438 153
f 392 165 423
f 392 423 438
f 165 172 151
f 165 151 423
f 151 172 210
f 438 423 421
f 421 423 151
f 436 153 438
f 436 438 421
f 153 436 143
f 436 421 389
f 436 389 143
f 153 143 134
f 153 134 170
f 143 389 141
f 143 141 127
f 127 141 389
f 143 127 134
f 127 389 419
f 368 389 421
f 389 368 419
f 368 421 150
f 150 421 151
f 368 150 142
f 150 151 105
f 105 151 210
f 142 150 138
f 138 150 105
f 368 142 366
f 366 142 138
f 368 366 419
f 366 138 125
f 125 138 105
f 419 366 383
f 383 366 125
f 419 383 409
f 133 127 419
f 133 419 409
f 409 383 325
f 409 325 133
f 127 133 134
f 383 125 342
f 383 342 325
f 133 325 116
f 342 125 117
f 117 125 105
f 133 116 192
f 133 192 134
f 116 325 178
f 116 178 192
f 340 325 342
f 325 340 178
f 323 342 117
f 342 323 340
f 323 117 113
f 113 117 105
f 113 105 323
f 178 340 322
f 322 340 323
f 229 192 178
f 192 229 177
f 229 178 225
f 229 225 177
f 225 178 162
f 162 178 322
f 177 225 161
f 177 161 321
f 225 162 147
f 225 147 161
f 147 162 160
f 147 160 161
f 321 161 123
f 123 161 160
f 123 160 162
f 123 162 322
f 123 322 445
f 445 322 379
f 379 322 323
f 379 323 364
f 364 323 108
f 379 364 363
f 363 364 108
f 379 363 381
f 379 381 94
f 94 381 363
f 94 363 108
f 108 323 105
f 94 108 537
f 537 108 105
f 94 537 539
f 539 537 536
f 536 537 105
f 536 105 63
f 63 105 210
f 63 210 75
f 536 63 519
f 536 519 527
f 527 519 524
f 63 75 64
f 63 64 519
f 64 75 69
f 524 519 518
f 518 519 64
f 524 518 499
f 524 499 69
f 518 64 494
f 518 494 499
f 64 69 50
f 50 69 499
f 494 64 48
f 48 64 50
f 499 494 502
f 499 502 50
f 494 48 44
f 44 48 50
f 494 44 496
f 494 496 502
f 44 50 46
f 46 50 502
f 44 46 40
f 46 502 8
f 46 8 40
f 8 502 491
f 502 496 487
f 502 487 491
f 26 496 44
f 496 26 487
f 29 44 40
f 44 29 26
f 31 40 8
f 40 31 29
f 483 8 491
f 8 483 31
f 483 491 487
f 29 31 38
f 29 38 26
f 31 483 34
f 31 34 38
f 478 487 26
f 487 478 483
f 478 26 38
f 483 478 479
f 34 483 39
f 39 483 479
f 34 39 38
f 479 478 477
f 477 478 38
f 479 477 39
f 477 38 41
f 41 38 39
f 41 39 477
f 413 390 270
f 270 390 255
f 270 255 256
f 256 255 390
f 413 270 271
f 271 270 256
f 413 271 414
f 256 390 410
f 256 410 271
f 410 390 413
f 271 410 414
f 414 410 413
f 180 192 215
f 192 180 134
f 180 215 181
f 180 181 286
f 286 181 296
f 296 181 311
f 311 181 194
f 286 296 288
f 180 286 274
f 274 286 288
f 311 194 299
f 299 194 170
f 296 311 309
f 296 309 288
f 311 299 292
f 311 292 309
f 299 170 268
f 299 268 292
f 268 170 134
f 309 292 61
f 309 61 288
f 61 292 60
f 288 61 57
f 61 60 55
f 61 55 57
f 55 60 269
f 55 269 57
f 269 60 292
f 57 269 288
f 269 292 268
f 288 269 266
f 288 266 274
f 274 266 264
f 264 266 269
f 274 264 180
f 264 269 253
f 264 253 180
f 253 269 268
f 180 253 134
f 253 268 265
f 265 268 134
f 265 134 253
f 251 176 250
f 176 251 131
f 251 250 146
f 251 146 131
f 250 176 157
f 146 250 175
f 175 250 249
f 249 250 157
f 146 175 158
f 175 249 224
f 175 224 158
f 146 158 109
f 146 109 131
f 109 158 130
f 131 109 122
f 122 109 130
f 131 122 111
f 131 111 89
f 131 89 176
f 111 122 110
f 111 110 89
f 110 122 130
f 176 89 90
f 90 89 110
f 90 110 130
f 176 90 157
f 201 130 158
f 201 158 224
f 90 130 93
f 93 130 201
f 90 93 157
f 157 93 129
f 157 129 249
f 93 201 96
f 93 96 129
f 201 224 228
f 201 228 96
f 248 224 249
f 248 249 129
f 228 224 247
f 247 224 248
f 129 96 121
f 129 121 248
f 96 228 100
f 96 100 121
f 100 228 246
f 246 228 247
f 247 248 260
f 260 248 121
f 246 247 272
f 121 100 120
f 121 120 260
f 100 246 101
f 100 101 120
f 101 246 272
f 120 101 119
f 259 247 260
f 247 259 272
f 259 260 120
f 272 259 101
f 259 120 119
f 259 119 101
f 463 398 461
f 463 461 474
f 461 398 394
f 463 474 465
f 463 465 398
f 398 465 402
f 465 474 467
f 402 465 404
f 404 465 467
f 398 402 400
f 400 402 404
f 396 394 398
f 396 398 400
f 393 461 394
f 393 394 396
f 461 393 460
f 461 460 474
f 460 393 462
f 460 462 474
f 462 393 395
f 474 462 464
f 395 393 397
f 397 393 396
f 462 395 399
f 462 399 464
f 399 395 397
f 474 464 466
f 466 464 399
f 474 466 467
f 467 466 404
f 466 399 403
f 466 403 404
f 403 399 401
f 403 401 404
f 401 399 397
f 404 401 400
f 401 397 88
f 401 88 400
f 88 397 84
f 84 397 396
f 400 88 87
f 87 88 84
f 400 87 396
f 87 84 83
f 87 83 396
f 396 83 84
f 282 245 349
f 245 282 212
f 245 212 221
f 245 221 304
f 304 221 212
f 245 304 349
f 304 212 328
f 304 328 349
f 328 212 329
f 329 212 223
f 223 212 282
f 328 329 352
f 329 223 317
f 329 317 352
f 223 282 213
f 223 213 317
f 350 349 328
f 350 328 352
f 351 282 349
f 351 349 350
f 213 282 305
f 305 282 351
f 202 317 213
f 202 213 305
f 373 352 317
f 373 317 202
f 372 350 352
f 350 372 351
f 352 373 405
f 352 405 372
f 351 372 384
f 351 384 305
f 384 372 424
f 424 372 405
f 305 384 330
f 305 330 202
f 384 424 432
f 384 432 330
f 424 405 416
f 202 330 190
f 202 190 373
f 330 432 374
f 330 374 190
f 432 424 441
f 441 424 416
f 374 432 449
f 449 432 441
f 415 416 405
f 353 405 373
f 405 353 415
f 353 373 190
f 416 415 417
f 417 415 353
f 353 190 306
f 353 306 417
f 306 190 145
f 306 145 417
f 145 190 273
f 145 273 417
f 273 190 374
f 354 416 417
f 354 417 273
f 416 354 441
f 273 374 355
f 273 355 354
f 355 374 449
f 441 354 442
f 442 354 355
f 441 442 449
f 442 355 457
f 457 355 449
f 457 449 442
f 42 18 72
f 42 72 73
f 42 73 19
f 18 42 62
f 62 42 19
f 18 62 36
f 18 36 475
f 18 475 1
f 1 475 492
f 475 36 4
f 475 4 492
f 4 36 24
f 24 36 62
f 492 4 3
f 24 62 43
f 4 24 10
f 4 10 3
f 10 24 43
f 492 3 5
f 5 3 10
f 10 43 25
f 25 43 62
f 10 25 5
f 25 62 37
f 25 37 5
f 37 62 19
f 492 5 476
f 476 5 37
f 476 37 19
f 492 476 2
f 2 476 19
f 406 261 295
f 261 406 348
f 261 348 235
f 261 235 227
f 261 227 295
f 235 348 222
f 235 222 227
f 222 348 371
f 348 406 370
f 348 370 371
f 222 371 327
f 222 327 227
f 327 371 370
f 227 327 315
f 315 327 370
f 237 295 227
f 237 227 315
f 425 406 295
f 406 425 370
f 295 237 361
f 295 361 425
f 237 315 318
f 361 237 240
f 240 237 318
f 331 315 370
f 315 331 318
f 357 370 425
f 370 357 331
f 446 425 361
f 425 446 357
f 386 361 240
f 361 386 446
f 357 446 377
f 357 377 331
f 446 386 452
f 446 452 377
f 452 386 385
f 452 385 377
f 386 240 252
f 386 252 385
f 331 377 334
f 334 377 385
f 331 334 318
f 385 252 378
f 334 385 358
f 358 385 378
f 334 358 318
f 378 252 333
f 333 252 240
f 378 333 358
f 333 240 318
f 333 318 358
